<svg xmlns="http://www.w3.org/2000/svg"  viewBox="0 0 100 100" width="50px" height="50px"><circle cx="78" cy="14" r="1" fill="#f1bc19"/><circle cx="50" cy="50" r="38" fill="#fce0a2"/><circle cx="84" cy="16" r="4" fill="#f1bc19"/><circle cx="14" cy="26" r="2" fill="#ee3e54"/><circle cx="78" cy="77" r="2" fill="#fbcd59"/><circle cx="17" cy="78" r="4" fill="#fbcd59"/><circle cx="24" cy="83" r="2" fill="#ee3e54"/><circle cx="66.483" cy="78.517" r="2.483" fill="#fff"/><circle cx="16" cy="48" r="1" fill="#fff"/><circle cx="86" cy="31" r="1" fill="#f1bc19"/><circle cx="74" cy="70" r="2" fill="#fff"/><path fill="#472b29" d="M65.578,54.324c-0.194,0-0.38-0.114-0.46-0.305c-0.108-0.254,0.011-0.548,0.265-0.656l10.738-4.557	c0.251-0.106,0.548,0.01,0.655,0.265c0.108,0.254-0.011,0.548-0.265,0.656l-10.738,4.557C65.71,54.312,65.644,54.324,65.578,54.324z"/><path fill="#472b29" d="M78.548,48.818c-0.194,0-0.379-0.114-0.46-0.305c-0.108-0.254,0.011-0.547,0.265-0.656l1.925-0.817	c0.251-0.106,0.547,0.011,0.655,0.265c0.108,0.254-0.011,0.547-0.265,0.656l-1.925,0.817C78.68,48.806,78.613,48.818,78.548,48.818z"/><path fill="#f45834" d="M26.848,65.024c-6.081,0-8.348-4.305-8.348-7.018c0-5.002,4.18-10.41,8.099-15.086l0.83,0.545	c-1.122,2.244-1.409,3.378-1.279,5.059c0.002,4.792,3.419,5.791,6.285,5.791c0.879,0,1.773-0.128,2.657-0.38	c41.463-11.01,46.664-12.34,47.372-12.501l-0.002-0.007c0.135-0.034,0.253-0.05,0.36-0.05c0.385,0,0.589,0.223,0.652,0.432	c0.056,0.186,0.068,0.552-0.481,0.918c-0.517,0.229-43.63,18.554-47.579,20.134l-0.329,0.128	C32.759,63.896,29.864,65.024,26.848,65.024z"/><path fill="#472b29" d="M82.823,41.876c0.279,0,0.219,0.217-0.107,0.434c0,0-43.497,18.489-47.487,20.086	c-2.394,0.931-5.321,2.128-8.38,2.128c-5.587,0-7.848-3.858-7.848-6.518c0-4.656,3.858-9.843,7.981-14.765	c-1.197,2.394-1.463,3.591-1.33,5.321c0,4.257,2.66,6.252,6.784,6.252c0.931,0,1.862-0.133,2.793-0.399	c0,0,47.088-12.504,47.354-12.504C82.68,41.887,82.76,41.876,82.823,41.876 M82.823,40.476	C82.823,40.476,82.823,40.476,82.823,40.476c-0.182,0-0.372,0.025-0.58,0.077l0.004,0.016c-1.281,0.29-7.989,2.033-47.378,12.493	c-0.827,0.236-1.637,0.352-2.434,0.352c-3.623,0-5.384-1.587-5.384-4.852c0-0.036-0.001-0.072-0.004-0.107	c-0.104-1.353,0.038-2.29,1.187-4.587c0.318-0.635,0.109-1.407-0.484-1.797c-0.236-0.155-0.502-0.229-0.767-0.229	c-0.402,0-0.799,0.173-1.074,0.501c-4.02,4.798-8.308,10.36-8.308,15.664c0,3.061,2.511,7.918,9.248,7.918	c3.186,0,6.168-1.163,8.564-2.097l0.323-0.126c3.971-1.589,45.751-19.347,47.528-20.102c0.08-0.034,0.157-0.075,0.229-0.124	c1.102-0.735,0.925-1.661,0.844-1.928C84.139,40.896,83.545,40.476,82.823,40.476L82.823,40.476z"/><path fill="#472b29" d="M26.848,63.024c-4.624,0-6.348-3.078-6.348-5.018c0-0.276,0.224-0.5,0.5-0.5s0.5,0.224,0.5,0.5	c0,1.554,1.452,4.018,5.348,4.018c0.2,0,0.399-0.006,0.6-0.019c0.301-0.015,0.513,0.194,0.529,0.469	c0.017,0.276-0.193,0.513-0.469,0.529C27.288,63.017,27.067,63.024,26.848,63.024z"/><path fill="#472b29" d="M29.531,62.702c-0.229,0-0.436-0.158-0.488-0.391c-0.06-0.27,0.109-0.537,0.379-0.597	c0.6-0.135,1.235-0.314,1.941-0.548c0.262-0.086,0.545,0.056,0.632,0.317c0.087,0.262-0.056,0.545-0.317,0.632	c-0.738,0.245-1.404,0.433-2.037,0.574C29.604,62.698,29.567,62.702,29.531,62.702z"/><path fill="#472b29" d="M33.359,61.478c-0.2,0-0.389-0.121-0.466-0.318c-0.101-0.257,0.027-0.547,0.284-0.647l1.126-0.438	c1.91-0.764,9.284-3.914,9.358-3.945c0.251-0.109,0.548,0.01,0.656,0.264s-0.01,0.547-0.264,0.656	c-0.074,0.032-7.459,3.186-9.384,3.956l-1.13,0.44C33.481,61.467,33.42,61.478,33.359,61.478z"/></svg>